<?xml version="1.0" encoding="UTF-8"?>
<svg id="Layer_1" xmlns="http://www.w3.org/2000/svg" version="1.1" viewBox="0 0 102 57">
  <!-- Generator: Adobe Illustrator 29.7.1, SVG Export Plug-In . SVG Version: 2.1.1 Build 8)  -->
  <defs>
    <style>
      .st0 {
        fill: #f37021;
      }

      .st1 {
        fill: #373b43;
      }
    </style>
  </defs>
  <path id="Shape" class="st1" d="M84.7,40c4.5,0,8.2,3.7,8.2,8.2s-3.7,8.2-8.2,8.2-8.2-3.7-8.2-8.2,3.7-8.2,8.2-8.2ZM84.7,51.8c2,0,3.6-1.6,3.6-3.6s-1.6-3.6-3.6-3.6-3.6,1.6-3.6,3.6,1.6,3.6,3.6,3.6Z"/>
  <path id="Shape1" data-name="Shape" class="st1" d="M59.5,25.2h23.9l-8.1-20.4h-15.7v20.4h-.1ZM80.3,23.1h-18.6V6.8h12.1l6.5,16.3Z"/>
  <path id="Shape2" data-name="Shape" class="st1" d="M.6,49.3h14v-1.1c0-5.7,4.7-10.4,10.4-10.4s10.4,4.7,10.4,10.4v1.1h38.9v-1.1c0-5.7,4.7-10.4,10.4-10.4s10.4,4.7,10.4,10.4v1.1h6.9v-17.6c0-2.7-1.9-5.1-4.5-5.8l-10-2.5-7.6-19.6c-.9-2.3-3-3.8-5.5-3.8H.5v49.3h.1ZM12.6,47.2H2.7V2.1h71.7c1.6,0,3,.9,3.5,2.4l8,20.6,11.1,2.9c1.7.4,2.9,2,2.9,3.8v15.4h-2.8c-.5-6.4-5.9-11.5-12.5-11.5s-11.9,5.1-12.5,11.5h-34.7c-.5-6.4-5.9-11.5-12.5-11.5s-11.8,5-12.3,11.5Z"/>
  <path id="Shape3" data-name="Shape" class="st1" d="M25.1,40c4.5,0,8.2,3.7,8.2,8.2s-3.7,8.2-8.2,8.2-8.2-3.7-8.2-8.2,3.6-8.2,8.2-8.2ZM25.1,51.8c2,0,3.6-1.6,3.6-3.6s-1.6-3.6-3.6-3.6-3.6,1.6-3.6,3.6,1.6,3.6,3.6,3.6Z"/>
  <g>
    <path class="st0" d="M13.77,14.22h7.1v2.23h-4.76v2.89h4.76v2.23h-4.76v5.19h-2.34v-12.54Z"/>
    <path class="st0" d="M22.2,26.76v-12.54h4.02c2.96,0,4.69,1.77,4.69,4.36,0,1.51-.74,2.92-2.11,3.66l2.51,4.52h-2.66l-2.01-3.83h-2.1v3.83h-2.34ZM26.02,20.78c1.92,0,2.56-1.05,2.56-2.29s-.77-2.1-2.56-2.1h-1.48v4.38h1.48Z"/>
    <path class="st0" d="M32.24,14.22h7.44v2.23h-5.1v2.89h5.1v2.23h-5.1v2.96h5.1v2.23h-7.44v-12.54Z"/>
    <path class="st0" d="M40.98,14.22h7.44v2.23h-5.1v2.89h5.1v2.23h-5.1v2.96h5.1v2.23h-7.44v-12.54Z"/>
  </g>
</svg>