<?xml version="1.0" encoding="UTF-8"?>
<svg id="Layer_1" xmlns="http://www.w3.org/2000/svg" version="1.1" viewBox="0 0 66.8 58.6">
  <!-- Generator: Adobe Illustrator 29.7.1, SVG Export Plug-In . SVG Version: 2.1.1 Build 8)  -->
  <defs>
    <style>
      .st0 {
        fill: #f16222;
      }

      .st1 {
        fill: #373b43;
      }
    </style>
  </defs>
  <path class="st1" d="M42.8,0l-.4.9c-1.4,3.7-5,6.1-9,6.1s-7.5-2.4-9-6.1l-.4-.9L0,8l5.3,16.8,8.4-2.6v36.4h39.4V22l8.4,3,5.3-17L42.8,0ZM33.4,9c4.5,0,8.5-2.5,10.5-6.5l1.1.3c-2.1,4.5-6.6,7.4-11.6,7.4s-9.5-2.9-11.6-7.4l1.1-.4c2,4,6,6.6,10.5,6.6ZM2.5,9.3l1.2-.4,4,13.1-1.1.3L2.5,9.3ZM51.1,19.2v37.4H15.7V19.5l-6.1,1.9-4-13.1,14.3-4.8c2.4,5.3,7.7,8.8,13.5,8.8s11.2-3.5,13.5-8.8l14.4,4.8-4,13.2-6.2-2.3ZM60.2,22.5l-.9-.3,4-13.2,1.1.4-4.2,13.1Z"/>
  <g>
    <path class="st0" d="M43.6,38.44h-20.39c-.79,0-1.43-.64-1.43-1.43v-20.39c0-.79.64-1.43,1.43-1.43h20.39c.79,0,1.43.64,1.43,1.43v20.39c0,.79-.64,1.43-1.43,1.43ZM23.2,15.68c-.52,0-.94.42-.94.94v20.39c0,.52.42.94.94.94h20.39c.52,0,.94-.42.94-.94v-20.39c0-.52-.42-.94-.94-.94h-20.39Z"/>
    <g>
      <path class="st1" d="M43.34,24.85h-1.78c-.03-.24-.11-.47-.23-.67-.39-.68-1.18-1.14-2.1-1.14s-1.7.46-2.09,1.13h0c-.12.21-.2.44-.24.68h-1.71c0-.09.02-.18.03-.28.07-.45.22-.88.45-1.26,0,0,0,0,0,0,.5-.86,1.36-1.52,2.39-1.81.37-.1.76-.16,1.16-.16s.8.06,1.17.16c1.03.29,1.88.95,2.39,1.81.26.51.45,1.02.55,1.53Z"/>
      <path class="st1" d="M23.49,24.85h1.78c.03-.24.11-.47.23-.67.39-.68,1.18-1.14,2.1-1.14s1.7.46,2.09,1.13h0c.12.21.2.44.24.68h1.71c0-.09-.02-.18-.03-.28-.07-.45-.22-.88-.45-1.26,0,0,0,0,0,0-.5-.86-1.36-1.52-2.39-1.81-.37-.1-.76-.16-1.16-.16s-.8.06-1.17.16c-1.03.29-1.88.95-2.39,1.81-.26.51-.44,1.02-.55,1.53Z"/>
      <path class="st1" d="M39.9,28.59s.06.11.05.16c-.02.13-.4.68-.5.81-2,2.62-5.96,3.35-8.97,2.23-1.31-.49-2.74-1.49-3.45-2.72-.12-.2-.29-.51.02-.52.06,0,.12.02.16.06,1.06.91,2.31,1.57,3.66,1.92,3,.79,6.39.13,8.73-1.93.06-.05.13-.07.2-.06.03,0,.07.02.09.05Z"/>
    </g>
  </g>
</svg>