<?xml version="1.0" encoding="UTF-8"?>
<svg id="Layer_1" xmlns="http://www.w3.org/2000/svg" baseProfile="tiny" version="1.2" viewBox="0 0 160 40">
  <!-- Generator: Adobe Illustrator 29.7.1, SVG Export Plug-In . SVG Version: 2.1.1 Build 8)  -->
  <g>
    <path d="M.76,20.73l3.87-3.06c1.15,2,2.9,3.09,4.99,3.09,2.25,0,3.46-1.47,3.46-3.06,0-1.9-2.34-2.53-4.74-3.28-3.09-1-6.46-2.15-6.46-6.49,0-3.65,3.18-6.52,7.55-6.52,3.65,0,5.8,1.4,7.65,3.31l-3.5,2.65c-.97-1.47-2.34-2.18-4.12-2.18-2.09,0-3.18,1.12-3.18,2.59,0,1.84,2.15,2.37,4.65,3.21,3.09,1,6.58,2.37,6.58,6.74,0,3.59-2.87,7.08-7.86,7.08-4.09,0-6.8-1.75-8.89-4.09Z" fill="#fff"/>
    <path d="M40.37,1.72h6.21c7.68,0,12.05,4.93,12.05,11.39s-4.93,11.39-11.86,11.39h-6.4V1.72ZM44.61,5.66v14.92h1.65c4.99,0,8.11-3.21,8.11-7.46s-2.65-7.46-8.3-7.46h-1.47Z" fill="#fff"/>
    <g>
      <path d="M77.48,20.67c-1.26-2.16-3.4-3.81-5.96-4.53l-.5-1.45-2.41-6.95-2.42,6.94c-.29.06-.57.13-.85.2-1.64.46-3.15,1.27-4.41,2.34l5.53-15.51h4.28l5.53,15.52,1.22,3.43Z" fill="#fff"/>
      <path d="M78.86,24.5h-4.45c-.08-.59-.28-1.17-.58-1.68-.96-1.69-2.95-2.85-5.24-2.85s-4.25,1.14-5.22,2.81h0c-.31.53-.51,1.1-.6,1.71h-4.26c.02-.23.04-.46.08-.69.17-1.13.56-2.19,1.12-3.15,0,0,0,0,0,0,1.26-2.16,3.4-3.81,5.98-4.53.92-.26,1.9-.4,2.9-.4s2,.14,2.93.4c2.57.72,4.7,2.37,5.96,4.53l1.37,3.83Z" fill="#fff"/>
      <path d="M19.18,20.67c1.26-2.16,3.4-3.81,5.96-4.53l.5-1.45,2.41-6.95,2.42,6.94c.29.06.57.13.85.2,1.64.46,3.15,1.27,4.41,2.34L30.21,1.72h-4.28l-5.53,15.52-1.22,3.43Z" fill="#fff"/>
      <path d="M17.81,24.5h4.45c.08-.59.28-1.17.58-1.68.96-1.69,2.95-2.85,5.24-2.85s4.25,1.14,5.22,2.81h0c.31.53.51,1.1.6,1.71h4.26c-.02-.23-.04-.46-.08-.69-.17-1.13-.56-2.19-1.12-3.15,0,0,0,0,0,0-1.26-2.16-3.4-3.81-5.98-4.53-.92-.26-1.9-.4-2.9-.4s-2,.14-2.93.4c-2.57.72-4.7,2.37-5.96,4.53l-1.37,3.83Z" fill="#fff"/>
    </g>
    <polygon points="81.65 1.72 83.43 1.72 92.67 14.52 102.25 1.72 103.97 1.72 103.97 24.5 102.19 24.5 102.19 4.59 92.64 17.48 83.46 4.88 83.46 24.5 81.65 24.5 81.65 1.72" fill="#ff6105"/>
    <path d="M116.26,1.72h1.93l8.77,22.78h-1.9l-2.47-6.37h-10.77l-2.43,6.37h-1.9L116.26,1.72ZM112.49,16.42h9.46l-4.71-12.3-4.74,12.3Z" fill="#ff6105"/>
    <path d="M132.46,3.38h-7.12v-1.65h16.04v1.65h-7.12v21.13h-1.81V3.38Z" fill="#ff6105"/>
    <path d="M148.53,1.72h1.93l8.77,22.78h-1.9l-2.47-6.37h-10.77l-2.43,6.37h-1.9l8.77-22.78ZM144.75,16.42h9.46l-4.71-12.3-4.74,12.3Z" fill="#ff6105"/>
  </g>
  <path d="M67.31,27.74c.1.1.17.33.15.47-.06.37-1.17,1.98-1.46,2.36-5.86,7.67-17.46,9.81-26.26,6.52-3.84-1.44-8.01-4.35-10.09-7.95-.34-.6-.84-1.5.06-1.52.17,0,.34.06.47.17,3.09,2.67,6.76,4.58,10.72,5.63,8.79,2.32,18.7.38,25.56-5.66.16-.14.38-.21.59-.16.1.02.19.07.26.14Z" fill="#ff6105"/>
</svg>