<svg width="16" height="17" viewBox="0 0 16 17" fill="none" xmlns="http://www.w3.org/2000/svg">
<g clip-path="url(#clip0_12752_2960)">
<path d="M8 0.5C3.57841 0.5 0 4.078 0 8.5C0 12.9215 3.578 16.5 8 16.5C12.4216 16.5 16 12.922 16 8.5C16 4.07847 12.422 0.5 8 0.5ZM8 15.3837C4.20431 15.3837 1.11628 12.2957 1.11628 8.5C1.11628 4.70428 4.20431 1.61628 8 1.61628C11.7957 1.61628 14.8837 4.70428 14.8837 8.5C14.8837 12.2957 11.7957 15.3837 8 15.3837Z" fill="#F37927"/>
<path d="M8.0003 7.16864C7.52642 7.16864 7.18945 7.36876 7.18945 7.66361V11.6757C7.18945 11.9284 7.52642 12.1811 8.0003 12.1811C8.45311 12.1811 8.82164 11.9284 8.82164 11.6757V7.66355C8.82164 7.36873 8.45311 7.16864 8.0003 7.16864Z" fill="#F37927"/>
<path d="M8.00019 4.69397C7.51578 4.69397 7.13672 5.04147 7.13672 5.44163C7.13672 5.84181 7.51581 6.19984 8.00019 6.19984C8.47406 6.19984 8.85319 5.84181 8.85319 5.44163C8.85319 5.04147 8.47403 4.69397 8.00019 4.69397Z" fill="#F37927"/>
</g>
<defs>
<clipPath id="clip0_12752_2960">
<rect width="16" height="16" fill="white" transform="translate(0 0.5)"/>
</clipPath>
</defs>
</svg>
